<?xml version="1.0" encoding="utf-8"?>
<!-- Generator: Adobe Illustrator 16.0.3, SVG Export Plug-In . SVG Version: 6.00 Build 0)  -->
<!DOCTYPE svg PUBLIC "-//W3C//DTD SVG 1.1//EN" "http://www.w3.org/Graphics/SVG/1.1/DTD/svg11.dtd">
<svg version="1.1" id="Capa_1" xmlns="http://www.w3.org/2000/svg" xmlns:xlink="http://www.w3.org/1999/xlink" x="0px" y="0px"
	 width="1133.86px" height="1360.63px" viewBox="0 0 1133.86 1360.63" enable-background="new 0 0 1133.86 1360.63"
	 xml:space="preserve">
<polygon fill="#FFFFFF" points="11.555,43.552 96.601,4.184 125.763,71.588 40.229,111.767 "/>
<polygon fill="#55D3EB" points="16.369,45.981 93.81,10.218 118.507,67.615 41.903,103.819 "/>
<path fill="#1BBD5E" d="M35.484,88.293c0,0,18.14-0.441,23.303-3.09C63.95,82.553,81.67,69.087,81.67,69.087
	s23.023-22.554,26.477-22.002c3.454,0.552,0,0.249,0,0.249l2.668,4.056l6.541,15.563v1.207l-74.52,35.219L35.484,88.293z"/>
<ellipse fill="#FBFE85" cx="36.322" cy="56.724" rx="7.535" ry="7.653"/>
<polyline fill="#1BBD5E" points="35.779,88.285 34.957,88.084 41.903,103.819 44.405,102.637 36.322,88.267 "/>
<polygon fill="#1BBD5E" points="107.676,47.074 109.669,47.074 118.507,67.615 117.049,68.305 "/>
<path fill="#FFFFFF" d="M18.323,26.112c0.418,0,38.955-3.725,38.955-3.725L18.323,40.419V26.112z"/>
<polyline fill="#3A63B4" points="23.16,37.095 22.578,30.472 44.518,27.971 23.463,38.346 22.578,37.095 "/>
<polygon fill="#FFFFFF" points="101.499,15.502 111.287,15.502 113.855,44.067 "/>
<polygon fill="#3A63B4" points="107.676,27.216 107.676,19.6 103.271,19.6 107.676,28.762 "/>
<polygon fill="#FFFFFF" points="82.181,92.061 118.507,88.084 117.356,75.538 "/>
<polygon fill="#1BBD5E" points="96.95,86.159 113.855,83.799 113.092,77.541 "/>
<polygon fill="#FFFFFF" points="23.903,72.93 25.299,98.668 34.957,99.223 28.993,85.038 "/>
<polygon fill="#1BBD5E" points="28.787,94.841 32.275,94.841 28.618,84.146 "/>
<polygon fill="#FFFFFF" points="18.95,39.91 23.3,38.115 22.999,35.267 "/>
<polygon fill="#FFFFFF" points="19.423,39.91 37.552,31.404 21.863,40.419 "/>
</svg>
